<svg id="visual" viewBox="0 0 960 540" width="960" height="540" xmlns="http://www.w3.org/2000/svg" xmlns:xlink="http://www.w3.org/1999/xlink" version="1.1"><rect x="0" y="0" width="960" height="540" fill="#fff"></rect><defs><linearGradient id="grad1_0" x1="43.8%" y1="0%" x2="100%" y2="100%"><stop offset="14.444444444444446%" stop-color="#ffffff" stop-opacity="1"></stop><stop offset="85.55555555555554%" stop-color="#ffffff" stop-opacity="1"></stop></linearGradient></defs><defs><linearGradient id="grad2_0" x1="0%" y1="0%" x2="56.3%" y2="100%"><stop offset="14.444444444444446%" stop-color="#ffffff" stop-opacity="1"></stop><stop offset="85.55555555555554%" stop-color="#ffffff" stop-opacity="1"></stop></linearGradient></defs><g transform="translate(960, 0)"><path d="M0 135C-24.1 131.8 -48.2 128.5 -67.5 116.9C-86.8 105.3 -101.3 85.4 -111.7 64.5C-122.2 43.6 -128.6 21.8 -135 0L0 0Z" fill="#564FCC"></path></g><g transform="translate(0, 540)"><path d="M0 -135C21.5 -128.1 43.1 -121.2 64 -110.9C84.9 -100.5 105.2 -86.6 116.9 -67.5C128.6 -48.4 131.8 -24.2 135 0L0 0Z" fill="#564FCC"></path></g></svg>