<?xml version="1.0" encoding="utf-8"?>
<svg viewBox="0 0 188.89 62.118" xmlns="http://www.w3.org/2000/svg">
  <defs>
    <radialGradient id="radial-gradient" cx="23.9559" cy="27.8969" r="26.0045" gradientUnits="userSpaceOnUse">
      <stop offset="0" stop-color="#00a7ea"/>
      <stop offset="0.1345" stop-color="#029fe5"/>
      <stop offset="0.3375" stop-color="#068bd5"/>
      <stop offset="0.5837" stop-color="#0d69bd"/>
      <stop offset="0.8613" stop-color="#173a9b"/>
      <stop offset="1" stop-color="#1d2088"/>
    </radialGradient>
    <linearGradient id="レッドグラデ" x1="23.6671" y1="19.9842" x2="4.5855" y2="56.2567" gradientUnits="userSpaceOnUse">
      <stop offset="0.0112" stop-color="#d1000e"/>
      <stop offset="0.4775" stop-color="#e60012"/>
      <stop offset="1" stop-color="#eb6135"/>
    </linearGradient>
  </defs>
  <title>アセット 2</title>
  <g id="レイヤー_2" data-name="レイヤー 2" transform="matrix(1, 0, 0, 1, 3.001927, 2.776546)">
    <g id="レイヤー_1-2" data-name="レイヤー 1">
      <polygon points="57.133 24.585 57.096 24.585 51.494 15.43 47.549 15.43 47.549 28.606 50.449 28.606 50.449 19.227 50.49 19.227 56.242 28.606 60.037 28.606 60.037 15.43 57.133 15.43 57.133 24.585" fill="#231815"/>
      <rect x="62.65" y="15.43" width="2.9" height="13.177" fill="#231815"/>
      <path d="M 73.059 15.43 L 68.166 15.43 L 68.166 28.606 L 71.066 28.606 L 71.066 23.47 L 73.193 23.47 C 75.967 23.47 78.068 22.523 78.068 19.434 C 78.068 16.301 75.797 15.43 73.059 15.43 Z M 73.006 21.013 L 71.067 21.013 L 71.067 17.887 L 72.559 17.887 C 73.678 17.887 75.055 18.073 75.055 19.434 C 75.055 20.659 74.027 21.013 73.006 21.013 Z" fill="#231815"/>
      <path d="M 84.664 15.43 L 79.764 15.43 L 79.764 28.606 L 82.672 28.606 L 82.672 23.47 L 84.793 23.47 C 87.567 23.47 89.67 22.523 89.67 19.434 C 89.67 16.301 87.399 15.43 84.664 15.43 Z M 84.608 21.013 L 82.672 21.013 L 82.672 17.887 L 84.158 17.887 C 85.275 17.887 86.652 18.073 86.652 19.434 C 86.652 20.659 85.631 21.013 84.608 21.013 Z" fill="#231815"/>
      <path d="M 98.219 15.094 C 94.1 15.094 91.108 17.791 91.108 22.017 C 91.108 26.242 94.1 28.94 98.219 28.94 C 102.328 28.94 105.326 26.241 105.326 22.016 C 105.326 17.792 102.328 15.094 98.219 15.094 Z M 98.219 26.261 C 95.867 26.335 93.964 24.364 94.121 22.017 C 94.007 18.864 97.347 16.77 100.134 18.247 C 101.522 18.983 102.368 20.447 102.311 22.017 C 102.469 24.363 100.569 26.334 98.219 26.261 Z" fill="#231815"/>
      <polygon points="116.611 24.585 116.574 24.585 110.971 15.43 107.027 15.43 107.027 28.606 109.932 28.606 109.932 19.227 109.963 19.227 115.717 28.606 119.516 28.606 119.516 15.43 116.611 15.43 116.611 24.585" fill="#231815"/>
      <path d="M 129.492 19.131 C 129.492 18.151 130.627 17.772 131.445 17.772 C 132.239 17.754 133.003 18.073 133.549 18.648 L 135.539 16.473 C 134.41 15.529 132.972 15.038 131.502 15.094 C 128.912 15.094 126.476 16.563 126.476 19.375 C 126.476 23.767 132.66 22.46 132.66 24.88 C 132.66 25.814 131.594 26.261 130.642 26.261 C 129.652 26.255 128.72 25.795 128.113 25.013 L 126.047 27.283 C 127.249 28.394 128.84 28.989 130.477 28.941 C 133.196 28.941 135.557 27.544 135.557 24.603 C 135.557 19.987 129.492 21.536 129.492 19.131 Z" fill="#231815"/>
      <polygon points="136.473 17.996 140.233 17.996 140.233 28.606 143.137 28.606 143.137 17.996 146.899 17.996 146.899 15.43 136.473 15.43 136.473 17.996" fill="#231815"/>
      <polygon points="151.5 23.243 157.213 23.243 157.213 20.565 151.5 20.565 151.5 18.109 157.549 18.109 157.549 15.43 148.596 15.43 148.596 28.606 157.883 28.606 157.883 25.923 151.5 25.923 151.5 23.243" fill="#231815"/>
      <polygon points="163.4 23.243 169.113 23.243 169.113 20.565 163.4 20.565 163.4 18.109 169.449 18.109 169.449 15.43 160.498 15.43 160.498 28.606 169.783 28.606 169.783 25.923 163.4 25.923 163.4 23.243" fill="#231815"/>
      <polygon points="175.301 15.43 172.4 15.43 172.4 28.606 180.68 28.606 180.68 25.923 175.301 25.923 175.301 15.43" fill="#231815"/>
      <polygon points="50.65 42.732 56.369 42.732 56.369 40.054 50.65 40.054 50.65 37.598 56.701 37.598 56.701 34.919 47.748 34.919 47.748 48.095 57.033 48.095 57.033 45.412 50.65 45.412 50.65 42.732" fill="#231815"/>
      <polygon points="69.231 44.074 69.195 44.074 63.596 34.919 59.65 34.919 59.65 48.095 62.553 48.095 62.553 38.716 62.59 38.716 68.342 48.095 72.137 48.095 72.137 34.919 69.231 34.919 69.231 44.074" fill="#231815"/>
      <path d="M 81.32 42.959 L 83.681 42.959 L 83.681 45.099 C 82.837 45.539 81.897 45.762 80.945 45.746 C 78.595 45.821 76.695 43.851 76.853 41.506 C 76.694 39.16 78.594 37.188 80.945 37.261 C 82.145 37.181 83.318 37.638 84.148 38.509 L 86.201 36.279 C 84.729 35.065 82.849 34.459 80.945 34.585 C 76.834 34.585 73.838 37.281 73.838 41.506 C 73.838 45.732 76.834 48.43 80.945 48.43 C 82.863 48.463 84.761 48.029 86.474 47.164 L 86.474 40.277 L 81.32 40.277 L 81.32 42.959 Z" fill="#231815"/>
      <rect x="89.088" y="34.919" width="2.904" height="13.177" fill="#231815"/>
      <polygon points="104.191 44.074 104.152 44.074 98.551 34.919 94.607 34.919 94.607 48.095 97.508 48.095 97.508 38.716 97.545 38.716 103.297 48.095 107.092 48.095 107.092 34.919 104.191 34.919 104.191 44.074" fill="#231815"/>
      <polygon points="112.611 42.732 118.326 42.732 118.326 40.054 112.611 40.054 112.611 37.598 118.66 37.598 118.66 34.919 109.707 34.919 109.707 48.095 118.994 48.095 118.994 45.412 112.611 45.412 112.611 42.732" fill="#231815"/>
      <polygon points="124.51 42.732 130.227 42.732 130.227 40.054 124.51 40.054 124.51 37.598 130.563 37.598 130.563 34.919 121.609 34.919 121.609 48.095 130.895 48.095 130.895 45.412 124.51 45.412 124.51 42.732" fill="#231815"/>
      <path d="M 143.58 38.923 C 143.58 35.849 141.304 34.919 138.609 34.919 L 133.509 34.919 L 133.509 48.096 L 136.411 48.096 L 136.411 42.828 L 137.847 42.828 L 140.597 48.096 L 144.077 48.096 L 140.73 42.529 C 142.474 42.253 143.714 40.684 143.58 38.923 Z M 138.125 40.369 L 136.412 40.369 L 136.412 37.376 L 138.312 37.376 C 139.372 37.376 140.564 37.579 140.564 38.901 C 140.564 40.334 139.183 40.369 138.125 40.369 Z" fill="#231815"/>
      <rect x="145.519" y="34.919" width="2.9" height="13.177" fill="#231815"/>
      <polygon points="160.621 44.074 160.584 44.074 154.981 34.919 151.037 34.919 151.037 48.095 153.938 48.095 153.938 38.716 153.977 38.716 159.727 48.095 163.525 48.095 163.525 34.919 160.621 34.919 160.621 44.074" fill="#231815"/>
      <path d="M 172.707 40.277 L 172.707 42.959 L 175.068 42.959 L 175.068 45.099 C 174.224 45.54 173.283 45.762 172.332 45.746 C 169.982 45.82 168.081 43.851 168.238 41.506 C 168.081 39.159 169.981 37.189 172.332 37.261 C 173.532 37.181 174.705 37.638 175.535 38.509 L 177.582 36.279 C 176.112 35.064 174.234 34.458 172.332 34.585 C 168.218 34.585 165.22 37.281 165.22 41.506 C 165.22 45.732 168.218 48.43 172.332 48.43 C 174.249 48.463 176.147 48.029 177.859 47.164 L 177.859 40.277 L 172.707 40.277 Z" fill="#231815"/>
      <path d="M36.8926,28.85A18.7291,18.7291,0,1,0,.7012,38.5088c2.668,9.9961,13.0254,16.2656,22.9258,13.2636C33.1524,48.8838,39.5606,38.8408,36.8926,28.85Z" fill="url(#radial-gradient)"/>
      <path d="M33.0938,16.01C31.01,17.6953,11.8047,27.8828,7.1172,40.7646,3.8848,49.6474,13.6114,53.3115,22.09,52.167c0,0-27.1,5.4687-21.2676-16.5264C6.2188,15.2871,39.1036,0,39.1036,0Z" fill="url(#レッドグラデ)"/>
    </g>
  </g>
</svg>