<svg xmlns="http://www.w3.org/2000/svg" xmlns:xlink="http://www.w3.org/1999/xlink" viewBox="0 0 319.2364 52.7702"><defs><radialGradient id="radial-gradient" cx="23.9559" cy="27.8969" r="26.0045" gradientUnits="userSpaceOnUse"><stop offset="0" stop-color="#00a7ea"/><stop offset="0.1345" stop-color="#029fe5"/><stop offset="0.3375" stop-color="#068bd5"/><stop offset="0.5837" stop-color="#0d69bd"/><stop offset="0.8613" stop-color="#173a9b"/><stop offset="1" stop-color="#1d2088"/></radialGradient><linearGradient id="レッドグラデ" x1="23.6671" y1="19.9842" x2="4.5855" y2="56.2567" gradientUnits="userSpaceOnUse"><stop offset="0.0112" stop-color="#d1000e"/><stop offset="0.4775" stop-color="#e60012"/><stop offset="1" stop-color="#eb6135"/></linearGradient></defs><title>アセット 2</title><g id="レイヤー_2" data-name="レイヤー 2"><g id="レイヤー_1-2" data-name="レイヤー 1"><polygon points="60.133 40.585 60.096 40.585 54.494 31.43 50.549 31.43 50.549 44.606 53.449 44.606 53.449 35.227 53.49 35.227 59.242 44.606 63.037 44.606 63.037 31.43 60.133 31.43 60.133 40.585" fill="#231815"/><rect x="65.6504" y="31.4297" width="2.9004" height="13.1767" fill="#231815"/><path d="M76.0587,31.43H71.1661V44.6064h2.9V39.47h2.1269c2.7735,0,4.875-.9473,4.875-4.0361C81.0684,32.3008,78.7969,31.43,76.0587,31.43Zm-.0528,5.583H74.0665v-3.126h1.4922c1.1191,0,2.496.1855,2.496,1.5469C78.0547,36.6592,77.0274,37.0127,76.0059,37.0127Z" fill="#231815"/><path d="M87.6641,31.43h-4.9V44.6064h2.9082V39.47H87.793c2.7735,0,4.877-.9473,4.877-4.0361C92.67,32.3008,90.3985,31.43,87.6641,31.43Zm-.0566,5.583H85.6719v-3.126h1.4864c1.1171,0,2.4941.1855,2.4941,1.5469C89.6524,36.6592,88.6309,37.0127,87.6075,37.0127Z" fill="#231815"/><path d="M101.2188,31.0937c-4.1191,0-7.1113,2.6973-7.1113,6.9229S97.1,44.94,101.2188,44.94c4.1094,0,7.1074-2.6992,7.1074-6.9238S105.3282,31.0937,101.2188,31.0937Zm0,11.167a3.98,3.98,0,0,1-4.0976-4.2441,4.0974,4.0974,0,1,1,8.1894,0A3.9773,3.9773,0,0,1,101.2188,42.2607Z" fill="#231815"/><polygon points="119.611 40.585 119.574 40.585 113.971 31.43 110.027 31.43 110.027 44.606 112.932 44.606 112.932 35.227 112.963 35.227 118.717 44.606 122.516 44.606 122.516 31.43 119.611 31.43 119.611 40.585" fill="#231815"/><path d="M132.4922,35.1308c0-.98,1.1348-1.3593,1.9532-1.3593a2.8142,2.8142,0,0,1,2.1035.8769l1.99-2.1758a5.9439,5.9439,0,0,0-4.0371-1.3789c-2.59,0-5.0254,1.4688-5.0254,4.2813,0,4.3916,6.1836,3.0849,6.1836,5.5049,0,.9336-1.0664,1.3808-2.0176,1.3808a3.2225,3.2225,0,0,1-2.5293-1.248l-2.0664,2.27a6.2543,6.2543,0,0,0,4.43,1.6582c2.7188,0,5.08-1.3965,5.08-4.3379C138.5567,35.9873,132.4922,37.5361,132.4922,35.1308Z" fill="#231815"/><polygon points="139.473 33.996 143.233 33.996 143.233 44.606 146.137 44.606 146.137 33.996 149.899 33.996 149.899 31.43 139.473 31.43 139.473 33.996" fill="#231815"/><polygon points="154.5 39.243 160.213 39.243 160.213 36.565 154.5 36.565 154.5 34.109 160.549 34.109 160.549 31.43 151.596 31.43 151.596 44.606 160.883 44.606 160.883 41.923 154.5 41.923 154.5 39.243" fill="#231815"/><polygon points="166.4 39.243 172.113 39.243 172.113 36.565 166.4 36.565 166.4 34.109 172.449 34.109 172.449 31.43 163.498 31.43 163.498 44.606 172.783 44.606 172.783 41.923 166.4 41.923 166.4 39.243" fill="#231815"/><polygon points="178.301 31.43 175.4 31.43 175.4 44.606 183.68 44.606 183.68 41.923 178.301 41.923 178.301 31.43" fill="#231815"/><polygon points="192.027 39.243 197.746 39.243 197.746 36.565 192.027 36.565 192.027 34.109 198.078 34.109 198.078 31.43 189.125 31.43 189.125 44.606 198.41 44.606 198.41 41.923 192.027 41.923 192.027 39.243" fill="#231815"/><polygon points="210.608 40.585 210.572 40.585 204.973 31.43 201.027 31.43 201.027 44.606 203.93 44.606 203.93 35.227 203.967 35.227 209.719 44.606 213.514 44.606 213.514 31.43 210.608 31.43 210.608 40.585" fill="#231815"/><path d="M222.6973,39.47h2.3614V41.61a5.7086,5.7086,0,0,1-2.7364.6465,3.9741,3.9741,0,0,1-4.0918-4.24,3.9786,3.9786,0,0,1,4.0918-4.2451,4.0554,4.0554,0,0,1,3.2031,1.248l2.0528-2.23a7.4839,7.4839,0,0,0-5.2559-1.6933c-4.1113,0-7.1074,2.6953-7.1074,6.9209s2.9961,6.9238,7.1074,6.9238a11.8218,11.8218,0,0,0,5.5293-1.2656V36.7881h-5.1543Z" fill="#231815"/><rect x="230.4649" y="31.4297" width="2.9043" height="13.1767" fill="#231815"/><polygon points="245.568 40.585 245.529 40.585 239.928 31.43 235.984 31.43 235.984 44.606 238.885 44.606 238.885 35.227 238.922 35.227 244.674 44.606 248.469 44.606 248.469 31.43 245.568 31.43 245.568 40.585" fill="#231815"/><polygon points="253.988 39.243 259.703 39.243 259.703 36.565 253.988 36.565 253.988 34.109 260.037 34.109 260.037 31.43 251.084 31.43 251.084 44.606 260.371 44.606 260.371 41.923 253.988 41.923 253.988 39.243" fill="#231815"/><polygon points="265.887 39.243 271.604 39.243 271.604 36.565 265.887 36.565 265.887 34.109 271.94 34.109 271.94 31.43 262.986 31.43 262.986 44.606 272.272 44.606 272.272 41.923 265.887 41.923 265.887 39.243" fill="#231815"/><path d="M284.9571,35.4336c0-3.0742-2.2754-4.0039-4.9707-4.0039h-5.1V44.6064h2.9023V39.3389h1.4356l2.75,5.2675h3.48L282.1075,39.04A3.39,3.39,0,0,0,284.9571,35.4336ZM279.502,36.88h-1.7129V33.8867h1.9c1.0606,0,2.252.2031,2.252,1.5254C281.9415,36.8447,280.5606,36.88,279.502,36.88Z" fill="#231815"/><rect x="286.8965" y="31.4297" width="2.9004" height="13.1767" fill="#231815"/><polygon points="301.998 40.585 301.961 40.585 296.358 31.43 292.414 31.43 292.414 44.606 295.315 44.606 295.315 35.227 295.354 35.227 301.104 44.606 304.902 44.606 304.902 31.43 301.998 31.43 301.998 40.585" fill="#231815"/><path d="M314.084,36.7881V39.47h2.3614V41.61a5.7079,5.7079,0,0,1-2.7364.6465,3.9766,3.9766,0,0,1-4.0937-4.24,3.9812,3.9812,0,0,1,4.0937-4.2451,4.0557,4.0557,0,0,1,3.2032,1.248l2.0468-2.23a7.4563,7.4563,0,0,0-5.25-1.6933c-4.1132,0-7.1113,2.6953-7.1113,6.9209s2.9981,6.9238,7.1113,6.9238a11.8142,11.8142,0,0,0,5.5274-1.2656V36.7881Z" fill="#231815"/><path d="M36.8926,28.85A18.7291,18.7291,0,1,0,.7012,38.5088c2.668,9.9961,13.0254,16.2656,22.9258,13.2636C33.1524,48.8838,39.5606,38.8408,36.8926,28.85Z" fill="url(#radial-gradient)"/><path d="M33.0938,16.01C31.01,17.6953,11.8047,27.8828,7.1172,40.7646,3.8848,49.6474,13.6114,53.3115,22.09,52.167c0,0-27.1,5.4687-21.2676-16.5264C6.2188,15.2871,39.1036,0,39.1036,0Z" fill="url(#レッドグラデ)"/></g></g></svg>