<svg id="visual" viewBox="0 0 675 900" width="675" height="900" xmlns="http://www.w3.org/2000/svg" xmlns:xlink="http://www.w3.org/1999/xlink" version="1.1"><rect x="0" y="0" width="675" height="900" fill="#fff"></rect><defs><linearGradient id="grad1_0" x1="0%" y1="100%" x2="100%" y2="0%"><stop offset="30%" stop-color="#ffffff" stop-opacity="1"></stop><stop offset="70%" stop-color="#ffffff" stop-opacity="1"></stop></linearGradient></defs><defs><linearGradient id="grad2_0" x1="0%" y1="100%" x2="100%" y2="0%"><stop offset="30%" stop-color="#ffffff" stop-opacity="1"></stop><stop offset="70%" stop-color="#ffffff" stop-opacity="1"></stop></linearGradient></defs><g transform="translate(675, 900)"><path d="M-196.9 0C-179.6 -27.2 -162.3 -54.5 -148.1 -85.5C-133.8 -116.5 -122.6 -151.3 -98.4 -170.5C-74.3 -189.7 -37.1 -193.3 0 -196.9L0 0Z" fill="#FBAE3C"></path></g><g transform="translate(0, 0)"><path d="M196.9 0C193.1 36.9 189.4 73.8 170.5 98.4C151.6 123.1 117.4 135.5 86.5 149.8C55.6 164.2 27.8 180.5 0 196.9L0 0Z" fill="#FBAE3C"></path></g></svg>